<?xml version="1.0" encoding="iso-8859-1"?>
<!-- Generator: Adobe Illustrator 19.0.0, SVG Export Plug-In . SVG Version: 6.00 Build 0)  -->
<svg version="1.1" id="Capa_1" xmlns="http://www.w3.org/2000/svg" xmlns:xlink="http://www.w3.org/1999/xlink" x="0px" y="0px"
	 viewBox="0 0 460 460" style="enable-background:new 0 0 460 460;" xml:space="preserve">
<g id="XMLID_1098_">
	<polygon id="XMLID_1099_" style="fill:#A3A3A3;" points="130,210 130,150 60,150 60,40 130,40 130,0 30,0 30,210 	"/>
	<path id="XMLID_1100_" style="fill:#A3A3A3;" d="M115,300H90v130h40V325.977C121.036,320.789,115,311.102,115,300z"/>
	<rect id="XMLID_1101_" x="30" y="300" style="fill:#A3A3A3;" width="30" height="130"/>
	<path id="XMLID_1102_" style="fill:#8F8F8F;" d="M205,300h-30c0,16.568-13.431,30-30,30c-5.466,0-10.586-1.469-15-4.023V430h100
		V329.577C215.813,327.196,205,314.864,205,300z"/>
	<polygon id="XMLID_1103_" style="fill:#8F8F8F;" points="200,40 200,150 130,150 130,210 230,210 230,0 130,0 130,40 	"/>
	<path id="XMLID_1104_" style="fill:#E8E8E8;" d="M200,40h-70v110h70V40z M155,110c-8.284,0-15-6.716-15-15s6.716-15,15-15
		s15,6.716,15,15S163.284,110,155,110z"/>
	<path id="XMLID_1107_" style="fill:#FFFFFF;" d="M60,40v110h70V40H60z M105,110c-8.284,0-15-6.716-15-15s6.716-15,15-15
		s15,6.716,15,15S113.284,110,105,110z"/>
	<rect id="XMLID_1110_" x="340" y="180" style="fill:#8F8F8F;" width="40" height="30"/>
	<rect id="XMLID_1111_" x="270" y="30" style="fill:#E8E8E8;" width="90" height="30"/>
	<rect id="XMLID_1112_" x="360" y="30" style="fill:#BFBFBF;" width="90" height="30"/>
	<polygon id="XMLID_1113_" style="fill:#A3A3A3;" points="360,180 380,180 450,60 360,60 	"/>
	<polygon id="XMLID_1114_" style="fill:#BFBFBF;" points="360,60 270,60 340,180 360,180 	"/>
	<rect id="XMLID_1115_" x="60" y="300" style="fill:#606060;" width="30" height="130"/>
	<rect id="XMLID_1116_" x="380" y="300" style="fill:#606060;" width="80" height="130"/>
	<rect id="XMLID_1117_" x="30" y="430" style="fill:#404040;" width="430" height="30"/>
	<path id="XMLID_1118_" style="fill:#606060;" d="M130,325.977c4.414,2.554,9.534,4.023,15,4.023v-30h-30
		C115,311.102,121.036,320.789,130,325.977z"/>
	<path id="XMLID_1119_" style="fill:#404040;" d="M175,300h-30v30C161.569,330,175,316.568,175,300z"/>
	<path id="XMLID_1120_" style="fill:#404040;" d="M265,300h-30v30C251.569,330,265,316.568,265,300z"/>
	<path id="XMLID_1121_" style="fill:#606060;" d="M230,329.577c1.627,0.273,3.296,0.423,5,0.423v-30h-30
		C205,314.864,215.813,327.196,230,329.577z"/>
	<path id="XMLID_1122_" style="fill:#404040;" d="M355,300h-30v30C341.569,330,355,316.568,355,300z"/>
	<path id="XMLID_1123_" style="fill:#606060;" d="M325,330v-30h-30C295,316.568,308.431,330,325,330z"/>
	<rect id="XMLID_1124_" x="60" y="255" style="fill:#BFBFBF;" width="320" height="45"/>
	<polygon id="XMLID_1125_" style="fill:#606060;" points="60,210 30,210 30,240 0,240 0,270 30,270 30,300 60,300 	"/>
	<polygon id="XMLID_1126_" style="fill:#E8E8E8;" points="60,210 60,255 380,255 380,300 460,300 460,210 	"/>
	<circle id="XMLID_1127_" style="fill:#FF3D0D;" cx="155" cy="95" r="15"/>
	<circle id="XMLID_1128_" style="fill:#8F8F8F;" cx="105" cy="95" r="15"/>
</g>
<g>
</g>
<g>
</g>
<g>
</g>
<g>
</g>
<g>
</g>
<g>
</g>
<g>
</g>
<g>
</g>
<g>
</g>
<g>
</g>
<g>
</g>
<g>
</g>
<g>
</g>
<g>
</g>
<g>
</g>
</svg>
